#!OML:ASF I:\Actors\actors\Patient Classification 2\Patient 1\Session 1\actor1.ASF
:FULLY-SPECIFIED
:DEGREES
508
root -0.911279 18.7677 4.52177 3.5852 -6.5622 -0.67802
lowerback 4.25346 -0.956427 3.11008
upperback -2.64471 -0.958813 2.5368
thorax -5.13862 -0.53706 0.970002
lowerneck -16.8646 -3.26568 -4.16538
upperneck 23.2115 -3.55111 0.396237
head 10.2961 -1.96757 0.346139
rclavicle -1.38901e-014 -1.74931e-014
rhumerus 3.75392 47.0409 -39.3739
rradius 94.4474
rwrist 36.5634
rhand -39.3579 -41.7421
rfingers 7.12502
rthumb -12.3488 -71.3574
lclavicle -1.38901e-014 -1.74931e-014
lhumerus 25.8901 -26.8006 62.9333
lradius 100.819
lwrist 61.3121
lhand -26.3043 -19.2199
lfingers 7.12502
lthumb 0.251837 10.7597
rfemur 0 0 0
rtibia 0
rfoot 0 0
rtoes 0
lfemur -4.99729 -3.92666 -13.4653
ltibia 19.3664
lfoot -21.5519 13.0473
ltoes -54.5161
509
root -0.916248 18.7669 4.51983 3.58471 -6.30625 -0.695472
lowerback 4.28356 -0.963316 3.11931
upperback -2.60459 -0.968518 2.50965
thorax -5.11444 -0.542212 0.937322
lowerneck -16.9887 -3.33888 -4.17117
upperneck 23.2113 -3.66075 0.454646
head 10.3236 -2.01049 0.350459
rclavicle 1.65209e-014 -7.15625e-015
rhumerus 2.87023 45.8249 -39.9766
rradius 94.9611
rwrist 36.8093
rhand -39.4446 -43.6399
rfingers 7.12502
rthumb -12.4324 -73.2502
lclavicle 1.65209e-014 -7.15625e-015
lhumerus 25.3904 -27.1008 62.8147
lradius 101.725
lwrist 61.2067
lhand -25.6795 -18.9859
lfingers 7.12502
lthumb 0.855335 10.9921
rfemur 0 0 0
rtibia 0
rfoot 0 0
rtoes 0
lfemur -5.06655 -3.83202 -13.3699
ltibia 19.3599
lfoot -21.2499 12.7453
ltoes -54.7441
510
root -0.922301 18.7658 4.51687 3.6156 -5.97696 -0.705315
lowerback 4.28054 -0.973773 3.05545
upperback -2.58208 -0.987825 2.50262
thorax -5.08809 -0.549333 0.966865
lowerneck -16.9827 -3.42373 -4.21685
upperneck 23.0886 -3.79459 0.566519
head 10.2847 -2.06148 0.379842
rclavicle -8.46077e-015 2.14687e-014
rhumerus 1.67192 43.6586 -40.8346
rradius 95.4083
rwrist 37.2673
rhand -39.663 -43.0439
rfingers 7.12502
rthumb -12.6429 -72.6413
lclavicle -8.46077e-015 2.14687e-014
lhumerus 24.6259 -27.6064 62.6478
lradius 102.962
lwrist 61.1571
lhand -24.7759 -18.7376
lfingers 7.12502
lthumb 1.72797 11.2352
rfemur 0 0 0
rtibia 0
rfoot 0 0
rtoes 0
lfemur -5.20237 -3.81452 -13.2777
ltibia 19.3748
lfoot -21.012 12.4453
ltoes -54.9071
511
root -0.927972 18.7648 4.51438 3.63721 -5.59952 -0.753207
lowerback 4.25399 -0.985447 3.03365
upperback -2.53706 -1.00763 2.50359
thorax -5.02548 -0.557658 0.980289
lowerneck -16.9053 -3.50975 -4.37486
upperneck 22.9326 -3.93667 0.815853
head 10.2264 -2.10996 0.476578
rclavicle -2.47238e-015 1.43125e-014
rhumerus 0.489476 40.9088 -41.6122
rradius 95.9426
rwrist 37.5214
rhand -39.5983 -43.2338
rfingers 7.12502
rthumb -12.5805 -72.835
lclavicle -2.47238e-015 1.43125e-014
lhumerus 23.5751 -28.3401 62.5211
lradius 104.554
lwrist 60.8663
lhand -23.8077 -18.1777
lfingers 7.12502
lthumb 2.66308 11.7854
rfemur 0 0 0
rtibia 0
rfoot 0 0
rtoes 0
lfemur -5.34125 -3.88881 -13.1534
ltibia 19.4084
lfoot -20.8617 12.1571
ltoes -54.9912
512
root -0.934252 18.7652 4.51473 3.66418 -5.18044 -0.828662
lowerback 4.22829 -0.989455 3.05964
upperback -2.51849 -1.01442 2.47467
thorax -4.99244 -0.562019 0.935395
lowerneck -16.8487 -3.6074 -4.50748
upperneck 22.9019 -4.1007 1.0567
head 10.2179 -2.16812 0.561748
rclavicle -7.11276e-015 7.95139e-015
rhumerus 0.366478 37.6066 -41.5111
rradius 96.2238
rwrist 36.4918
rhand -40.2994 -41.1435
rfingers 7.12502
rthumb -13.2564 -70.7019
lclavicle -7.11276e-015 7.95139e-015
lhumerus 22.2856 -29.3996 62.3914
lradius 106.37
lwrist 60.6776
lhand -23.03 -17.5654
lfingers 7.12502
lthumb 3.41413 12.387
rfemur 0 0 0
rtibia 0
rfoot 0 0
rtoes 0
lfemur -5.50226 -4.02913 -12.9989
ltibia 19.4892
lfoot -20.7838 11.8796
ltoes -54.9885
513
root -0.931596 18.7668 4.51405 3.73885 -4.90003 -0.914375
lowerback 4.27657 -0.932405 3.21343
upperback -2.5872 -0.927178 2.38554
thorax -5.09556 -0.526735 0.751752
lowerneck -16.7787 -3.70861 -4.48603
upperneck 23 -4.28056 1.15854
head 10.2473 -2.23753 0.569584
rclavicle 6.94504e-015 1.51076e-014
rhumerus 1.17704 35.1682 -40.6061
rradius 96.4326
rwrist 36.2635
rhand -38.931 -44.7158
rfingers 7.12502
rthumb -11.9371 -74.3555
lclavicle 6.94504e-015 1.51076e-014
lhumerus 20.6993 -30.7882 62.3371
lradius 108.259
lwrist 60.6945
lhand -22.4072 -17.1623
lfingers 7.12502
lthumb 4.01559 12.7796
rfemur 0 0 0
rtibia 0
rfoot 0 0
rtoes 0
lfemur -5.67981 -4.39518 -12.9047
ltibia 19.5689
lfoot -20.9111 11.8948
ltoes -54.7871
514
root -0.909659 18.7692 4.50425 3.87252 -4.86304 -1.01651
lowerback 4.49643 -0.806121 3.65219
upperback -2.75133 -0.718857 2.22184
thorax -5.39994 -0.446215 0.324974
lowerneck -16.575 -3.80464 -4.39153
upperneck 23.0905 -4.46407 1.19548
head 10.2451 -2.31099 0.544367
rclavicle 9.27455e-015 2.62396e-014
rhumerus 2.66795 32.0292 -39.5149
rradius 96.2667
rwrist 35.3651
rhand -38.7608 -45.9949
rfingers 7.12502
rthumb -11.773 -75.644
lclavicle 9.27455e-015 2.62396e-014
lhumerus 18.7411 -32.3402 62.5305
lradius 110.088
lwrist 60.4799
lhand -22.0296 -17.1719
lfingers 7.12502
lthumb 4.38023 12.7628
rfemur 0 0 0
rtibia 0
rfoot 0 0
rtoes 0
lfemur -5.90506 -5.06352 -12.919
ltibia 19.6437
lfoot -21.2289 12.4008
ltoes -54.5466
515
root -0.915041 18.7693 4.50519 3.85799 -4.54142 -1.07245
lowerback 4.41453 -0.775485 3.71102
upperback -2.70285 -0.685691 2.10822
thorax -5.30364 -0.432617 0.168899
lowerneck -16.3366 -3.91429 -4.40098
upperneck 23.0398 -4.69023 1.44115
head 10.1948 -2.38824 0.605783
rclavicle -3.03768e-014 1.59028e-014
rhumerus 4.34827 28.3246 -38.5624
rradius 95.8235
rwrist 34.6786
rhand -38.3954 -45.8501
rfingers 7.12502
rthumb -11.4206 -75.5191
lclavicle -3.03768e-014 1.59028e-014
lhumerus 16.7693 -33.8443 62.8327
lradius 111.765
lwrist 60.1553
lhand -21.9256 -17.3492
lfingers 7.12502
lthumb 4.48063 12.5834
rfemur 0 0 0
rtibia 0
rfoot 0 0
rtoes 0
lfemur -5.98152 -5.2839 -12.8191
ltibia 19.7066
lfoot -21.1853 12.3385
ltoes -54.6207
516
root -0.922044 18.7701 4.50263 3.86267 -4.24333 -1.1287
lowerback 4.50785 -0.732692 3.75526
upperback -2.75758 -0.624118 1.98517
thorax -5.41478 -0.407875 0.0129995
lowerneck -16.1027 -4.05399 -4.60981
upperneck 23.0974 -4.96913 1.92856
head 10.1997 -2.47941 0.777301
rclavicle 3.80486e-015 -8.74653e-015
rhumerus 5.86709 24.5835 -37.7881
rradius 95.1748
rwrist 34.3656
rhand -38.0284 -46.0105
rfingers 7.12502
rthumb -11.0667 -75.6988
lclavicle 3.80486e-015 -8.74653e-015
lhumerus 14.5614 -35.487 63.3912
lradius 113.265
lwrist 60.0211
lhand -21.6536 -17.2852
lfingers 7.12502
lthumb 4.74323 12.6417
rfemur 0 0 0
rtibia 0
rfoot 0 0
rtoes 0
lfemur -6.09514 -5.3551 -12.7023
ltibia 19.7661
lfoot -21.0679 12.1966
ltoes -54.7395
517
root -0.927365 18.7718 4.49713 3.89619 -3.99846 -1.22471
lowerback 4.5316 -0.651695 3.85217
upperback -2.76318 -0.513543 1.86419
thorax -5.43337 -0.359368 -0.176686
lowerneck -15.8984 -4.26087 -4.87187
upperneck 23.0874 -5.33332 2.44524
head 10.1942 -2.61108 0.955939
rclavicle -1.32099e-014 1.03368e-014
rhumerus 7.64758 20.7637 -36.9929
rradius 94.3347
rwrist 34.1081
rhand -37.8364 -46.4919
rfingers 7.12502
rthumb -10.8815 -76.1899
lclavicle -1.32099e-014 1.03368e-014
lhumerus 12.4365 -37.1523 64.0534
lradius 114.518
lwrist 59.9627
lhand -21.3739 -17.0298
lfingers 7.12502
lthumb 5.01329 12.8909
rfemur 0 0 0
rtibia 0
rfoot 0 0
rtoes 0
lfemur -6.21178 -5.45525 -12.5521
ltibia 19.7859
lfoot -21.0029 12.1033
ltoes -54.8241
518
root -0.932073 18.7726 4.49069 3.91975 -3.79816 -1.3552
lowerback 4.56168 -0.532127 4.00796
upperback -2.74368 -0.348249 1.73688
thorax -5.42708 -0.285527 -0.411286
lowerneck -15.6987 -4.5152 -5.00081
upperneck 23.0563 -5.77024 2.84635
head 10.1802 -2.77861 1.06174
rclavicle 1.64619e-016 5.56597e-015
rhumerus 9.61248 16.9598 -36.3097
rradius 93.3132
rwrist 33.4041
rhand -37.855 -46.3492
rfingers 7.12502
rthumb -10.8994 -76.0463
lclavicle 1.64619e-016 5.56597e-015
lhumerus 10.3274 -38.808 64.8503
lradius 115.519
lwrist 59.6945
lhand -21.3442 -17.0431
lfingers 7.12502
lthumb 5.04201 12.8769
rfemur 0 0 0
rtibia 0
rfoot 0 0
rtoes 0
lfemur -6.31084 -5.54439 -12.3721
ltibia 19.8104
lfoot -20.9505 12.0654
ltoes -54.8865
519
root -0.935998 18.7724 4.48391 3.91293 -3.61479 -1.42297
lowerback 4.66537 -0.39957 4.13116
upperback -2.72534 -0.164218 1.59587
thorax -5.46146 -0.202108 -0.643239
lowerneck -15.5407 -4.74063 -4.98762
upperneck 23.0377 -6.15824 3.07624
head 10.1681 -2.93102 1.0898
rclavicle 1.14084e-014 3.97569e-016
rhumerus 11.7084 13.5004 -35.6568
rradius 92.0699
rwrist 32.9299
rhand -37.9414 -46.8903
rfingers 7.12502
rthumb -10.9827 -76.5831
lclavicle 1.14084e-014 3.97569e-016
lhumerus 8.06942 -40.3313 65.8829
lradius 116.286
lwrist 59.2306
lhand -21.1526 -17.3702
lfingers 7.12502
lthumb 5.22701 12.5454
rfemur 0 0 0
rtibia 0
rfoot 0 0
rtoes 0
lfemur -6.38544 -5.63482 -12.2724
ltibia 19.8398
lfoot -20.9075 12.0488
ltoes -54.927
520
root -0.938364 18.7735 4.47534 3.88629 -3.41924 -1.4218
lowerback 4.87038 -0.274983 4.25638
upperback -2.73783 0.0150837 1.4277
thorax -5.58482 -0.123625 -0.90409
lowerneck -15.4002 -4.92631 -4.99148
upperneck 23.0122 -6.48811 3.32163
head 10.1563 -3.05641 1.13395
rclavicle -7.52897e-015 9.14409e-015
rhumerus 13.7959 10.353 -35.2207
rradius 90.7481
rwrist 32.7158
rhand -37.829 -47.1512
rfingers 7.12502
rthumb -10.8743 -76.8496
lclavicle -7.52897e-015 9.14409e-015
lhumerus 5.71599 -41.6589 67.1811
lradius 116.869
lwrist 58.7712
lhand -20.7733 -17.5351
lfingers 7.12502
lthumb 5.59324 12.371
rfemur 0 0 0
rtibia 0
rfoot 0 0
rtoes 0
lfemur -6.44642 -5.8428 -12.2652
ltibia 19.8723
lfoot -20.8823 12.1744
ltoes -55.0439
521
root -0.941079 18.7757 4.46473 3.83301 -3.23642 -1.44915
lowerback 5.18506 -0.1481 4.46576
upperback -2.77491 0.211389 1.25916
thorax -5.79459 -0.0423405 -1.21536
lowerneck -15.2017 -5.10743 -5.06065
upperneck 22.9296 -6.8192 3.66276
head 10.1204 -3.17855 1.22388
rclavicle 2.45996e-015 -7.95139e-015
rhumerus 15.6436 7.50998 -35.1525
rradius 89.4494
rwrist 32.8415
rhand -38.1022 -47.1635
rfingers 7.12502
rthumb -11.1378 -76.8479
lclavicle 2.45996e-015 -7.95139e-015
lhumerus 3.53664 -42.7849 68.6292
lradius 117.289
lwrist 58.2872
lhand -20.4736 -17.494
lfingers 7.12502
lthumb 5.88255 12.4044
rfemur 0 0 0
rtibia 0
rfoot 0 0
rtoes 0
lfemur -6.47479 -6.07141 -12.2345
ltibia 19.9109
lfoot -20.8523 12.3869
ltoes -55.2465
522
root -0.944784 18.7773 4.45252 3.77755 -3.09801 -1.51603
lowerback 5.53614 -0.0124419 4.77732
upperback -2.78985 0.429617 1.08349
thorax -5.99822 0.0450448 -1.59614
lowerneck -14.9826 -5.29259 -5.04648
upperneck 22.7559 -7.15717 3.94117
head 10.0439 -3.30553 1.27808
rclavicle -2.80473e-015 -2.8625e-014
rhumerus 17.4442 5.12707 -35.1947
rradius 88.1796
rwrist 33.0298
rhand -38.4694 -47.5573
rfingers 7.12502
rthumb -11.4919 -77.2223
lclavicle -2.80473e-015 -2.8625e-014
lhumerus 1.43886 -43.6461 70.0808
lradius 117.614
lwrist 57.6987
lhand -20.1663 -17.6126
lfingers 7.12502
lthumb 6.17924 12.2772
rfemur 0 0 0
rtibia 0
rfoot 0 0
rtoes 0
lfemur -6.50725 -6.21074 -12.1568
ltibia 19.9608
lfoot -20.8516 12.5061
ltoes -55.342
